<?xml version="1.0" standalone="no"?><!DOCTYPE svg PUBLIC "-//W3C//DTD SVG 1.1//EN" "http://www.w3.org/Graphics/SVG/1.1/DTD/svg11.dtd"><svg t="1760605728169" class="icon" viewBox="0 0 1024 1024" version="1.1" xmlns="http://www.w3.org/2000/svg" p-id="5826" xmlns:xlink="http://www.w3.org/1999/xlink" width="200" height="200"><path d="M903.310925 842.182744c0.227555-0.341333 0.568888-0.682666 0.796444-1.052443A509.496323 509.496323 0 0 0 1024.000569 512a510.008322 510.008322 0 0 0-119.750978-329.130301c-0.256-0.341333-0.568888-0.568888-0.824888-0.938666-1.251554-1.479109-2.389331-2.844441-3.640885-4.209773-0.483555-0.568888-0.938666-1.023999-1.393776-1.592887l-4.664884-5.404438L893.61138 170.667046c-1.706665-1.962664-3.555552-3.896885-5.262216-5.831105l-0.113778-0.113777c-3.669329-3.896885-7.310214-7.765325-11.093321-11.548432l-0.113777-0.113778-5.489772-5.489771-0.341333-0.341333c-1.706665-1.706665-3.41333-3.327996-5.119994-4.920884-0.568888-0.568888-1.137777-1.137777-1.848887-1.706664a85.902127 85.902127 0 0 0-3.41333-3.214219c-0.369777-0.341333-0.824888-0.682666-1.137776-1.137777A509.553212 509.553212 0 0 0 512.001138 0.000569 510.036767 510.036767 0 0 0 164.239746 136.249306c-0.341333 0.312889-0.796444 0.654221-1.137776 1.137777-1.137777 1.023999-2.275553 2.161775-3.441774 3.299552-0.568888 0.568888-1.137777 1.137777-1.820442 1.706665-1.706665 1.592887-3.41333 3.327996-5.148439 4.920883l-0.341333 0.341333-5.489772 5.489772-0.113777 0.113777c-3.783107 3.783107-7.423992 7.679991-11.093322 11.548432l-0.113777 0.113778a240.725066 240.725066 0 0 0-5.262217 5.831104l-0.113777 0.113778c-1.592887 1.706665-3.185774 3.527107-4.664884 5.375994-0.455111 0.568888-0.938666 1.023999-1.393776 1.592887-1.251554 1.365332-2.389331 2.844441-3.640885 4.209773-0.227555 0.341333-0.568888 0.568888-0.796444 0.938666A510.008322 510.008322 0 0 0 0.001707 512a510.008322 510.008322 0 0 0 119.750978 329.130301l0.824888 1.052443 3.527107 4.209773c0.455111 0.568888 0.938666 1.023999 1.393776 1.592887l4.664884 5.404439c0 0.085333 0.113778 0.085333 0.113777 0.199111 1.706665 1.962664 3.41333 3.896885 5.262217 5.717327l0.113777 0.113777c3.669329 3.896885 7.310214 7.793769 10.979544 11.548432l0.113778 0.113778c1.820442 1.820442 3.527107 3.669329 5.375994 5.375994l0.341332 0.341333A511.060765 511.060765 0 0 0 512.001138 1023.999431a510.036767 510.036767 0 0 0 359.196045-147.199836l0.341333-0.341333c1.820442-1.820442 3.669329-3.555552 5.375994-5.375994l0.113778-0.113778c3.783107-3.783107 7.423992-7.679991 10.979543-11.548432l0.113778-0.113777c1.706665-1.93422 3.527107-3.754662 5.262216-5.688883 0-0.142222 0.113778-0.142222 0.113778-0.256 1.592887-1.706665 3.185774-3.527107 4.664883-5.375994 0.455111-0.568888 0.910221-1.023999 1.393777-1.592887 1.279999-1.365332 2.559997-2.787552 3.754662-4.209773z m4.693328-162.986485a429.169301 429.169301 0 0 1-61.951931 103.082552 507.647436 507.647436 0 0 0-93.127007-63.886151c13.255096-53.589274 21.475532-112.440764 23.637307-174.392696h164.010484a427.348859 427.348859 0 0 1-32.568853 135.196295z m32.568853-199.196223h-164.010484a854.299495 854.299495 0 0 0-23.637307-174.392696 507.362992 507.362992 0 0 0 93.127007-63.886151 427.263525 427.263525 0 0 1 94.520784 238.278847zM679.197396 115.996884a427.178192 427.178192 0 0 1 122.965197 79.075468 451.043054 451.043054 0 0 1-67.868369 47.786614c-17.948425-51.427498-40.93151-96.142115-67.669258-131.896743 4.238218 1.621332 8.447991 3.327996 12.57243 5.034661z m-103.537662 800.710222c-10.524433 8.191991-21.048866 14.506651-31.658632 18.716424v-211.996209c45.340394 3.15733 89.941233 13.255096 132.238076 29.951966-9.500434 28.10308-20.479977 54.044384-33.166186 77.482581-19.882645 37.034626-43.178619 66.616815-67.413258 85.816793z m67.413258-723.568974c12.57243 23.551974 23.665751 49.493278 33.166186 77.482581a444.813728 444.813728 0 0 1-132.238076 29.951966v-211.910875c10.524433 4.266662 21.134199 10.410655 31.658632 18.773312 24.23464 19.057757 47.530614 48.66839 67.413258 85.703016zM544.001102 659.342059v-115.31365h168.561591a793.371563 793.371563 0 0 1-18.631091 146.06206l-0.341333 1.365332a508.64299 508.64299 0 0 0-149.589167-32.113742z m0-179.313579v-115.31365a508.671435 508.671435 0 0 0 149.617612-32.113742l0.312888 1.365332c10.524433 46.506615 16.810648 95.431005 18.631091 146.06206h-168.561591z m-63.999929 63.999929v115.31365a508.586102 508.586102 0 0 0-149.617611 32.113742l-0.312889-1.365332a792.120009 792.120009 0 0 1-18.63109-146.06206h168.56159z m-168.56159-63.999929c1.820442-50.517277 8.106658-99.555445 18.63109-146.06206l0.341333-1.365332a507.903436 507.903436 0 0 0 149.589167 32.113742v115.31365h-168.56159z m168.56159 243.427285v211.910876a127.800747 127.800747 0 0 1-31.658631-18.773313c-24.23464-19.057757-47.644392-48.782168-67.555481-85.816793a516.266093 516.266093 0 0 1-33.137741-77.482581 446.065282 446.065282 0 0 1 132.351853-29.838189z m0-422.854641a444.785284 444.785284 0 0 1-132.238075-29.951967c9.500434-28.10308 20.479977-54.044384 33.137741-77.482581 19.911089-37.034626 43.235508-66.730593 67.55548-85.816793 10.524433-8.24888 21.048866-14.506651 31.658632-18.773313v212.024654h-0.113778z m-135.196294-184.575795c4.238218-1.706665 8.334213-3.41333 12.572431-5.034661-26.737748 35.783071-49.720834 80.469244-67.669259 131.896742A442.993286 442.993286 0 0 1 221.868127 195.072352a427.235081 427.235081 0 0 1 122.965197-79.075468z m-228.806857 228.806857a429.197745 429.197745 0 0 1 61.951931-103.082552c28.444413 24.575973 59.647934 46.051504 93.127008 63.886151a854.413273 854.413273 0 0 0-23.637307 174.392695H83.42917a427.235081 427.235081 0 0 1 32.568852-135.196294z m-32.568852 199.196223h164.010484c2.161775 61.951931 10.382211 120.803421 23.637307 174.392695a507.618992 507.618992 0 0 0-93.127008 63.886151 427.235081 427.235081 0 0 1-94.520783-238.278846z m261.375709 364.003151a427.235081 427.235081 0 0 1-122.965197-79.075468 450.986166 450.986166 0 0 1 67.868369-47.786613c17.948425 51.427498 40.93151 96.142115 67.669259 131.896742a420.607533 420.607533 0 0 1-12.572431-5.034661z m334.392517 0c-4.209773 1.706665-8.334213 3.41333-12.57243 5.034661 26.737748-35.783071 49.720834-80.469244 67.669258-131.896742a442.879508 442.879508 0 0 1 67.868369 47.786613 427.235081 427.235081 0 0 1-122.965197 79.075468z" fill="#ffffff" fill-opacity=".65" p-id="5827"></path></svg>