<?xml version="1.0" standalone="no"?><!DOCTYPE svg PUBLIC "-//W3C//DTD SVG 1.1//EN" "http://www.w3.org/Graphics/SVG/1.1/DTD/svg11.dtd"><svg t="1760607835256" class="icon" viewBox="0 0 1024 1024" version="1.1" xmlns="http://www.w3.org/2000/svg" p-id="2881" xmlns:xlink="http://www.w3.org/1999/xlink" width="200" height="200"><path d="M312.107838 410.52022c-169.218173 0-306.73989 137.521717-306.73989 306.73989s137.521717 306.73989 306.73989 306.73989 306.73989-137.521717 306.73989-306.73989-137.521717-306.73989-306.73989-306.73989z m0 536.794807c-127.297054 0-230.054918-102.757863-230.054917-230.054917s102.757863-230.054918 230.054917-230.054918 230.054918 102.757863 230.054918 230.054918c0 126.785821-103.269096 230.054918-230.054918 230.054917zM733.875187 0c-157.971043 0-286.290564 128.319521-286.290564 286.290564s128.319521 286.290564 286.290564 286.290564 286.290564-128.319521 286.290564-286.290564-127.808288-286.290564-286.290564-286.290564z m0 495.896156c-115.538692 0-209.605592-94.0669-209.605591-209.605592s94.0669-209.605592 209.605591-209.605591 209.605592 94.0669 209.605592 209.605591-93.555667 209.605592-209.605592 209.605592z" p-id="2882"></path><path d="M248.714928 758.669995m-38.342487 0a38.342486 38.342486 0 1 0 76.684973 0 38.342486 38.342486 0 1 0-76.684973 0Z" fill="#297AFF" p-id="2883"></path><path d="M815.161258 410.52022m-38.342486 0a38.342486 38.342486 0 1 0 76.684972 0 38.342486 38.342486 0 1 0-76.684972 0Z" fill="#FFC65F" p-id="2884"></path><path d="M683.774338 176.375437m-38.342486 0a38.342486 38.342486 0 1 0 76.684973 0 38.342486 38.342486 0 1 0-76.684973 0Z" fill="#FFC65F" p-id="2885"></path><path d="M618.847728 380.357464m-38.342486 0a38.342486 38.342486 0 1 0 76.684973 0 38.342486 38.342486 0 1 0-76.684973 0Z" fill="#FFC65F" p-id="2886"></path><path d="M815.161258 295.492761m-38.342486 0a38.342486 38.342486 0 1 0 76.684972 0 38.342486 38.342486 0 1 0-76.684972 0Z" fill="#FFC65F" p-id="2887"></path><path d="M172.029955 599.165252m-38.342486 0a38.342486 38.342486 0 1 0 76.684972 0 38.342486 38.342486 0 1 0-76.684972 0Z" fill="#297AFF" p-id="2888"></path><path d="M365.787319 891.079381m-38.342486 0a38.342486 38.342486 0 1 0 76.684972 0 38.342486 38.342486 0 1 0-76.684972 0Z" fill="#297AFF" p-id="2889"></path><path d="M395.950075 650.288567m-38.342486 0a38.342486 38.342486 0 1 0 76.684972 0 38.342486 38.342486 0 1 0-76.684972 0Z" fill="#297AFF" p-id="2890"></path></svg>