<?xml version="1.0" standalone="no"?><!DOCTYPE svg PUBLIC "-//W3C//DTD SVG 1.1//EN" "http://www.w3.org/Graphics/SVG/1.1/DTD/svg11.dtd"><svg t="1760605745839" class="icon" viewBox="0 0 1024 1024" version="1.1" xmlns="http://www.w3.org/2000/svg" p-id="6075" xmlns:xlink="http://www.w3.org/1999/xlink" width="200" height="200"><path d="M987.420444 109.511111H36.579556C16.355556 109.511111 0 125.838222 0 146.090667V877.511111c0 20.224 16.355556 36.579556 36.579556 36.579556h950.840888c20.224 0 36.579556-16.355556 36.579556-36.579556V146.090667c0-20.252444-16.355556-36.579556-36.579556-36.579556z m-45.710222 722.289778H82.289778V786.204444l158.293333-187.790222 171.52 203.434667 266.865778-316.330667 262.741333 311.523556v34.759111z m0-148.337778l-255.772444-303.331555a9.102222 9.102222 0 0 0-13.937778 0l-259.896889 308.110222-164.551111-195.072a9.102222 9.102222 0 0 0-13.937778 0l-151.324444 179.427555V191.800889h859.420444v491.662222zM274.289778 447.772444a100.551111 100.551111 0 1 0 0-201.130666 100.551111 100.551111 0 0 0 0 201.102222z m0-132.579555c17.720889 0 32 14.279111 32 32s-14.279111 32-32 32a31.943111 31.943111 0 0 1-32-32c0-17.720889 14.279111-32 32-32z" fill="#ffffff" fill-opacity=".65" p-id="6076"></path></svg>