<?xml version="1.0" standalone="no"?><!DOCTYPE svg PUBLIC "-//W3C//DTD SVG 1.1//EN" "http://www.w3.org/Graphics/SVG/1.1/DTD/svg11.dtd"><svg t="1760608029053" class="icon" viewBox="0 0 1024 1024" version="1.1" xmlns="http://www.w3.org/2000/svg" p-id="6217" xmlns:xlink="http://www.w3.org/1999/xlink" width="200" height="200"><path d="M881.87 25.148l7.932 165.532C798.832 83.808 663.348 16 512 16 269.626 16 67.866 189.848 24.592 419.648 21.816 434.386 33.208 448 48.206 448h98.168c11.14 0 20.754-7.684 23.352-18.518C206.814 274.816 345.862 160 512 160c121.786 0 229.024 61.712 292.208 155.602l-203.06-9.73c-13.69-0.656-25.148 10.266-25.148 23.972v94.822c0 13.254 10.746 24 24 24h400.666c13.254 0 24-10.746 24-24V24c0-13.254-10.746-24-24-24h-94.822c-13.706 0-24.63 11.458-23.974 25.148zM512 864c-121.79 0-229.034-61.716-292.218-155.61l203.736 9.742c13.69 0.654 25.146-10.268 25.146-23.972v-94.824c0-13.254-10.746-24-24-24H24c-13.254 0-24 10.746-24 24V1000c0 13.254 10.746 24 24 24h94.77c13.726 0 24.656-11.49 23.97-25.198l-8.258-165.15C225.45 940.332 360.81 1008 512 1008c242.374 0 444.134-173.848 487.408-403.648 2.776-14.738-8.616-28.352-23.614-28.352h-98.168c-11.14 0-20.754 7.684-23.352 18.518C817.186 749.184 678.138 864 512 864z" p-id="6218" fill="#ffffff"></path></svg>