<?xml version="1.0" standalone="no"?><!DOCTYPE svg PUBLIC "-//W3C//DTD SVG 1.1//EN" "http://www.w3.org/Graphics/SVG/1.1/DTD/svg11.dtd"><svg t="1760608504080" class="icon" viewBox="0 0 1024 1024" version="1.1" xmlns="http://www.w3.org/2000/svg" p-id="2424" xmlns:xlink="http://www.w3.org/1999/xlink" width="200" height="200"><path d="M438.052571 889.051429l223.670858-601.673143 0.438857-1.462857-224.109715 603.136zM661.869714 256h-67.803428a8.045714 8.045714 0 0 0-7.68 5.046857L354.011429 886.125714a6.436571 6.436571 0 0 0-0.365715 2.413715c0 4.096 3.657143 7.460571 8.045715 7.460571h68.096a8.045714 8.045714 0 0 0 7.606857-5.046857l0.731428-1.901714 224.109715-603.209143 7.387428-19.894857a6.436571 6.436571 0 0 0 0.438857-2.413715 7.899429 7.899429 0 0 0-8.118857-7.533714z m294.692572 310.125714a16.749714 16.749714 0 0 0-2.706286-2.486857l-220.013714-159.305143a8.411429 8.411429 0 0 0-11.190857 1.243429 7.021714 7.021714 0 0 0-1.755429 4.608v75.629714c0 2.340571 1.097143 4.388571 3.145143 5.851429l115.565714 83.748571-115.565714 83.748572a7.314286 7.314286 0 0 0-3.145143 5.851428v75.629714c0 4.096 3.657143 7.460571 8.045714 7.460572a8.338286 8.338286 0 0 0 4.900572-1.609143l220.013714-159.378286a14.189714 14.189714 0 0 0 2.706286-20.918857zM290.084571 404.406857L70.070857 563.638857a14.262857 14.262857 0 0 0 0 23.405714l220.013714 159.451429c1.462857 1.024 3.145143 1.609143 4.900572 1.609143 4.388571 0 8.045714-3.364571 8.045714-7.460572V665.014857a7.021714 7.021714 0 0 0-3.072-5.851428L184.32 575.414857l115.565714-83.748571a7.314286 7.314286 0 0 0 3.072-5.851429V410.185143a7.021714 7.021714 0 0 0-1.682285-4.608 8.411429 8.411429 0 0 0-11.264-1.243429z" p-id="2425" fill="#ffffff"></path></svg>