<?xml version="1.0" standalone="no"?><!DOCTYPE svg PUBLIC "-//W3C//DTD SVG 1.1//EN" "http://www.w3.org/Graphics/SVG/1.1/DTD/svg11.dtd"><svg t="1760605631815" class="icon" viewBox="0 0 1024 1024" version="1.1" xmlns="http://www.w3.org/2000/svg" p-id="2215" xmlns:xlink="http://www.w3.org/1999/xlink" width="200" height="200"><path d="M591.36 558.08L320.512 247.296l-186.368 307.2-43.52-26.624 222.208-367.104 316.928 363.52zM460.8 916.992l-40.96-30.72 235.52-318.976 229.888 319.488-41.472 29.696-188.928-262.144zM669.55776 549.46304l185.07776-385.96096 46.16704 22.13888-185.07776 385.96096z" p-id="2216"></path><path d="M414.208 238.08h-204.8v-204.8h204.8z" fill="#297AFF" p-id="2217"></path><path d="M107.008 541.184m-102.4 0a102.4 102.4 0 1 0 204.8 0 102.4 102.4 0 1 0-204.8 0Z" fill="#FFC65F" p-id="2218"></path><path d="M920.576 921.6m-102.4 0a102.4 102.4 0 1 0 204.8 0 102.4 102.4 0 1 0-204.8 0Z" fill="#00DF38" p-id="2219"></path><path d="M899.584 106.496m-102.4 0a102.4 102.4 0 1 0 204.8 0 102.4 102.4 0 1 0-204.8 0Z" fill="#FFC65F" p-id="2220"></path><path d="M538.112 643.584h228.864l-115.2-204.8M556.032 1021.952h-204.8v-204.8h204.8z" fill="#297AFF" p-id="2221"></path></svg>