<?xml version="1.0" standalone="no"?><!DOCTYPE svg PUBLIC "-//W3C//DTD SVG 1.1//EN" "http://www.w3.org/Graphics/SVG/1.1/DTD/svg11.dtd"><svg t="1760952012162" class="icon" viewBox="0 0 1024 1024" version="1.1" xmlns="http://www.w3.org/2000/svg" p-id="6766" xmlns:xlink="http://www.w3.org/1999/xlink" width="200" height="200"><path d="M418.812 122.173l0.01 0.792v815.13c0 16.516-13.38 29.905-29.885 29.905-16.27 0-29.502-13.01-29.877-29.2l-0.008-0.705-0.001-743.644-244.183 240.953c-11.565 11.413-30.075 11.466-41.705 0.255l-0.557-0.55c-11.405-11.574-11.458-30.096-0.255-41.734l0.55-0.558 295.052-291.146c18.697-18.45 50.23-5.512 50.859 20.502z m272.43 683.649c16.506 0 29.886 13.389 29.886 29.905 0 16.28-13 29.522-29.18 29.897l-0.705 0.008H541.609c-16.505 0-29.885-13.389-29.885-29.905 0-16.28 13-29.522 29.18-29.897l0.705-0.008h149.634zM778.6 610.288c16.505 0 29.884 13.389 29.884 29.905 0 16.28-13 29.522-29.179 29.897l-0.705 0.008h-236.99c-16.505 0-29.885-13.389-29.885-29.905 0-16.28 13-29.522 29.18-29.897l0.705-0.008h236.99z m82.758-195.534c16.505 0 29.885 13.389 29.885 29.905 0 16.28-13 29.522-29.18 29.897l-0.705 0.008H541.609c-16.505 0-29.885-13.389-29.885-29.905 0-16.28 13-29.522 29.18-29.897l0.705-0.008h319.748z m82.758-195.435c16.505 0 29.885 13.389 29.885 29.905 0 16.28-13 29.522-29.18 29.897l-0.705 0.008H541.61c-16.505 0-29.885-13.389-29.885-29.905 0-16.28 13-29.522 29.18-29.897l0.705-0.008h402.506z" fill="#ffffff" p-id="6767"></path></svg>