<?xml version="1.0" standalone="no"?><!DOCTYPE svg PUBLIC "-//W3C//DTD SVG 1.1//EN" "http://www.w3.org/Graphics/SVG/1.1/DTD/svg11.dtd"><svg t="1760608555977" class="icon" viewBox="0 0 1024 1024" version="1.1" xmlns="http://www.w3.org/2000/svg" p-id="3485" xmlns:xlink="http://www.w3.org/1999/xlink" width="200" height="200"><path d="M612 879.2c-19.2-0.8-35.2 13.6-36 32.8-0.8 19.2 13.6 35.2 32.8 36h3.2c19.2-0.8 33.6-16.8 32.8-36-0.8-17.6-15.2-32-32.8-32.8z m-184 0c-19.2 0-34.4 15.2-34.4 34.4s15.2 34.4 34.4 34.4 34.4-15.2 34.4-34.4-15.2-34.4-34.4-34.4z m344-148.8c-25.6 0-45.6 20.8-45.6 46.4 0 25.6 20.8 45.6 46.4 45.6 25.6 0 45.6-20.8 45.6-46.4 0-25.6-20-45.6-46.4-45.6z m-160 0c-25.6 0-46.4 20-46.4 45.6s20 46.4 45.6 46.4 46.4-20 46.4-45.6c0-26.4-20.8-46.4-45.6-46.4z m-184 0c-25.6 0-45.6 20.8-45.6 46.4 0 25.6 20.8 45.6 46.4 45.6 25.6 0 45.6-20.8 45.6-46.4 0-25.6-20.8-45.6-46.4-45.6z m-160 0c-25.6 0-46.4 20-46.4 45.6s20 46.4 45.6 46.4 46.4-20 46.4-45.6c0-26.4-20.8-46.4-45.6-46.4z m344-195.2c-37.6 0-68.8 30.4-68.8 68.8 0 37.6 30.4 68.8 68.8 68.8s68.8-30.4 68.8-68.8c-0.8-38.4-31.2-68.8-68.8-68.8z m-184 0c-37.6 0-68.8 31.2-68.8 68.8 0 37.6 31.2 68.8 68.8 68.8 38.4 0 68.8-31.2 68.8-68.8 0-38.4-30.4-68.8-68.8-68.8z m344 23.2c-25.6 0-45.6 20.8-45.6 46.4 0 25.6 20.8 45.6 46.4 45.6 25.6 0 45.6-20.8 45.6-46.4 0-25.6-20-45.6-46.4-45.6z m-504 0c-25.6 0-46.4 20-46.4 45.6s20 46.4 45.6 46.4 46.4-20 46.4-45.6c0-26.4-20.8-46.4-45.6-46.4z m630.4 11.2c-19.2 0-34.4 15.2-34.4 34.4s15.2 34.4 34.4 34.4 34.4-15.2 34.4-34.4-15.2-34.4-34.4-34.4z m-756.8 0c-19.2 0-34.4 15.2-34.4 34.4s15.2 34.4 34.4 34.4 34.4-15.2 34.4-34.4-16-35.2-34.4-34.4z m470.4-218.4c-37.6 0-68.8 30.4-68.8 68.8 0 37.6 30.4 68.8 68.8 68.8s68.8-30.4 68.8-68.8c-0.8-37.6-31.2-68.8-68.8-68.8z m-184 0c-37.6 0-68.8 31.2-68.8 68.8 0 37.6 31.2 68.8 68.8 68.8 38.4 0 68.8-31.2 68.8-68.8 0-37.6-30.4-68.8-68.8-68.8z m344 23.2c-25.6 0-45.6 20.8-45.6 46.4 0 25.6 20.8 45.6 46.4 45.6 25.6 0 45.6-20.8 45.6-46.4 0-24.8-20-45.6-46.4-45.6 0.8 0 0 0 0 0z m-504 0c-25.6 0-46.4 20-46.4 45.6s20 46.4 45.6 46.4 46.4-20 46.4-45.6-20.8-46.4-45.6-46.4z m630.4 11.2c-19.2 0-34.4 15.2-34.4 34.4s15.2 34.4 34.4 34.4 34.4-15.2 34.4-34.4-15.2-34.4-34.4-34.4z m-756.8 0c-19.2 0-34.4 16-34.4 34.4 0 19.2 16 34.4 34.4 34.4 19.2 0 34.4-16 34.4-34.4 0-19.2-16-34.4-34.4-34.4z m630.4-183.2c-25.6 0-45.6 20.8-45.6 46.4 0 25.6 20.8 45.6 46.4 45.6 25.6 0 45.6-20.8 45.6-46.4 0-25.6-20-45.6-46.4-45.6z m-160 0c-25.6 0-46.4 20-46.4 45.6s20 46.4 45.6 46.4 46.4-20 46.4-45.6c0-26.4-20.8-46.4-45.6-46.4z m-184 0c-25.6 0-45.6 20.8-45.6 46.4 0 25.6 20.8 45.6 46.4 45.6 25.6 0 45.6-20.8 45.6-46.4 0-25.6-20.8-45.6-46.4-45.6z m-160 0c-25.6 0-46.4 20-46.4 45.6s20 46.4 45.6 46.4 46.4-20 46.4-45.6c0-26.4-20.8-46.4-45.6-46.4z m344-126.4c-19.2-0.8-35.2 13.6-36 32.8-0.8 19.2 13.6 35.2 32.8 36h3.2c19.2-0.8 33.6-16.8 32.8-36-0.8-17.6-15.2-32-32.8-32.8z m-184 0c-19.2 0-34.4 15.2-34.4 34.4s15.2 34.4 34.4 34.4 34.4-15.2 34.4-34.4-15.2-34.4-34.4-34.4z" p-id="3486" fill="#ffffff"></path></svg>