<?xml version="1.0" standalone="no"?><!DOCTYPE svg PUBLIC "-//W3C//DTD SVG 1.1//EN" "http://www.w3.org/Graphics/SVG/1.1/DTD/svg11.dtd"><svg t="1760605621815" class="icon" viewBox="0 0 1024 1024" version="1.1" xmlns="http://www.w3.org/2000/svg" p-id="2042" xmlns:xlink="http://www.w3.org/1999/xlink" width="200" height="200"><path d="M302.801199 304.847153v-30.177822l-25.062937-42.453547h23.528471l6.649351 15.856144c2.045954 5.114885 3.58042 8.183816 5.626374 12.787213 1.534466-4.091908 3.58042-7.672328 5.114885-12.787213l6.64935-16.367632h23.528472L322.749251 273.134865v30.689311h-19.948052zM404.587413 276.203796h-29.666334v12.275724h32.735265v16.367633H354.973027V232.215784h51.66034v16.367633h-31.2008v11.252747H404.587413V276.203796zM421.466533 284.387612c4.603397 2.557443 12.787213 5.114885 20.971029 5.114886 6.649351 0 10.22977-2.045954 10.229771-5.626374 0-3.068931-3.58042-5.114885-12.275725-7.672328-12.275724-3.58042-22.505495-9.718282-22.505494-22.505494 0-13.298701 11.764236-23.016983 30.689311-23.016983 9.718282 0 16.367632 1.534466 21.994006 4.091908l-4.603397 16.367632c-3.58042-1.534466-9.718282-3.58042-17.902098-3.580419-6.137862 0-9.206793 2.045954-9.206793 5.114885 0 4.091908 4.603397 5.114885 14.321678 8.183816 14.321678 4.603397 20.971029 11.252747 20.971029 21.994006 0 12.275724-9.718282 23.528472-32.735265 23.528471-9.718282 0-18.925075-2.557443-23.528471-5.114885l3.580419-16.879121zM554.453546 304.847153V232.215784h25.574426l11.764236 20.971029c4.603397 8.183816 9.206793 17.902098 12.787213 27.62038h0.511488c-1.534466-10.741259-1.534466-19.436563-1.534465-29.666334v-18.925075h18.925074v72.631369h-21.994006l-13.298701-24.03996c-4.603397-8.183816-9.718282-17.902098-13.81019-28.131868h-0.511488c0.511489 10.741259 0.511489 21.482517 0.511488 32.223776v19.436563h-18.925075zM711.992008 268.01998c0 21.994006-15.344655 37.85015-40.407592 37.85015-24.03996 0-38.361638-15.856144-38.361639-36.827173 0-21.994006 15.856144-38.361638 39.384616-38.361638 24.551449 0.511489 39.384615 16.367632 39.384615 37.338661z m-57.286713 0.511489c0 12.275724 6.649351 21.482517 17.902098 21.482517s17.390609-9.206793 17.390609-21.482517-6.649351-21.994006-17.902098-21.994006c-10.22977 0-17.390609 9.718282-17.390609 21.994006zM79.280719 739.100899v-26.085914l-21.482517-36.315684h20.45954l5.626374 13.81019c2.045954 4.603397 3.068931 7.160839 4.603396 11.252747 1.534466-3.58042 3.068931-6.649351 4.603397-10.741259l5.626374-13.81019h19.948052l-22.505495 35.804196v26.597403h-16.879121zM166.233766 714.549451h-25.062937v10.741258H169.302697v13.81019h-45.522477v-61.89011h43.988012v13.81019h-26.597403v9.718282h25.062937v13.81019zM181.066933 721.71029c4.091908 2.045954 10.741259 4.091908 17.902098 4.091908 5.626374 0 8.695305-2.045954 8.695305-5.114885 0-2.557443-3.068931-4.603397-10.229771-6.649351-10.741259-3.068931-19.436563-8.183816-19.436563-18.925075 0-11.252747 10.22977-19.436563 26.085914-19.436563 8.695305 0 14.321678 1.534466 18.925075 3.580419l-4.091908 13.81019c-3.068931-1.022977-8.183816-3.068931-15.344655-3.068931-5.114885 0-8.183816 1.534466-8.183817 4.091908 0 3.068931 4.091908 4.603397 12.275725 7.160839 12.275724 4.091908 17.902098 9.718282 17.902098 18.925075 0 10.22977-8.183816 19.948052-28.131869 19.948052-8.183816 0-16.367632-2.045954-19.948052-4.091908l3.58042-14.321678zM260.347652 739.100899v-61.89011H281.83017l10.22977 17.902098c4.091908 6.649351 7.672328 15.344655 10.741259 23.528472h0.511488c-1.022977-9.206793-1.022977-16.879121-1.022977-25.062937v-16.367633h16.367633v61.89011h-18.925075l-11.252748-20.45954c-4.091908-7.160839-8.183816-15.344655-11.764235-24.03996h-0.511489c0.511489 9.206793 0.511489 18.413586 0.511489 27.620379v16.879121h-16.367633zM395.380619 707.9001c0 18.925075-13.298701 32.735265-34.781218 32.735265-20.45954 0-32.735265-13.81019-32.735265-31.712288 0-18.925075 13.81019-32.735265 33.758242-32.735265 20.971029-0.511489 33.758242 13.298701 33.758241 31.712288z m-49.102897 0c0 10.741259 6.137862 18.413586 15.344656 18.413586 9.718282 0 15.344655-7.672328 15.344655-18.413586s-6.137862-18.925075-15.344655-18.925075c-9.206793 0.511489-15.344655 8.695305-15.344656 18.925075zM475.172827 217.894106l40.919081-42.453547 39.896104 42.453547h69.562438L517.114885 101.274725 404.587413 217.894106zM722.221778 321.214785h-70.073926l110.993007 119.176823 37.338661-34.781218zM304.847153 321.214785L224.031968 405.098901l36.827173 35.292707 114.573426-119.176823zM229.146853 665.958042l13.298701-24.551449 13.298702 24.551449h57.798202l-71.096904-133.498502-71.608391 133.498502zM127.360639 747.796204l-43.476523 81.838162 45.010989 24.03996 56.775225-105.878122zM299.220779 747.796204l56.263736 105.878122 45.010989-24.03996-43.476523-81.838162z" p-id="2043"></path><path d="M622.993007 735.008991v-26.085914l-21.482517-36.315684h20.45954l5.626374 13.810189c2.045954 4.603397 3.068931 7.160839 4.603396 11.252748 1.534466-3.58042 3.068931-6.649351 4.603397-10.741259l5.626373-13.81019h19.948052l-22.505494 35.804196v26.597403h-16.879121zM710.457542 710.457542h-25.062937v10.741259h28.131869v13.81019h-45.522478v-61.89011h43.988012v13.81019h-26.597403v9.718282h25.062937v13.810189zM724.779221 718.12987c4.091908 2.045954 10.741259 4.091908 17.902098 4.091908 5.626374 0 8.695305-2.045954 8.695304-5.114885 0-2.557443-3.068931-4.603397-10.22977-6.649351-10.741259-3.068931-19.436563-8.183816-19.436563-18.925074 0-11.252747 10.22977-19.436563 26.085914-19.436564 8.695305 0 14.321678 1.534466 18.925075 3.58042l-4.091908 13.810189c-3.068931-1.022977-8.183816-3.068931-15.344656-3.068931-5.114885 0-8.183816 1.534466-8.183816 4.091909 0 3.068931 4.091908 4.603397 12.275724 7.160839 12.275724 4.091908 17.902098 9.718282 17.902098 18.925075 0 10.22977-8.183816 19.948052-28.131868 19.948052-8.183816 0-16.367632-2.045954-19.948052-4.091909l3.58042-14.321678z" p-id="2044"></path><path d="M804.05994 735.008991v-61.89011h21.994006l10.22977 17.902098c4.091908 6.649351 7.672328 15.344655 10.741259 23.528472h0.511489c-1.022977-9.206793-1.022977-16.879121-1.022977-25.062938v-16.367632h16.367632v61.89011h-18.925075l-11.252747-20.45954c-4.091908-7.160839-8.183816-15.344655-11.764236-24.03996h-0.511489c0.511489 9.206793 0.511489 18.413586 0.511489 27.620379v16.879121h-16.879121zM939.092907 703.808192c0 18.925075-13.298701 32.735265-34.781219 32.735265-20.45954 0-32.735265-13.81019-32.735264-31.712288 0-18.925075 13.81019-32.735265 33.758241-32.735265 21.482517 0 33.758242 13.298701 33.758242 31.712288z m-48.591408 0.511488c0 10.741259 6.137862 18.413586 15.344655 18.413587 9.718282 0 15.344655-7.672328 15.344655-18.413587s-6.137862-18.925075-15.344655-18.925075c-9.718282 0-15.344655 8.183816-15.344655 18.925075z" p-id="2045"></path><path d="M772.859141 662.377622l13.298701-25.062937 13.298701 25.062937h58.309691l-71.608392-133.498501-71.096903 133.498501zM671.584416 743.704296l-43.476524 82.34965 45.010989 24.03996 56.263736-106.38961zM842.933067 743.704296l56.775225 106.38961 45.010989-24.03996-43.476524-82.34965z" p-id="2046"></path><path d="M516.603397 102.297702m-102.297703 0a102.297702 102.297702 0 1 0 204.595405 0 102.297702 102.297702 0 1 0-204.595405 0Z" fill="#297AFF" p-id="2047"></path><path d="M781.554446 483.868132m-102.297703 0a102.297702 102.297702 0 1 0 204.595405 0 102.297702 102.297702 0 1 0-204.595405 0Z" fill="#297AFF" p-id="2048"></path><path d="M239.376623 483.868132m-102.297702 0a102.297702 102.297702 0 1 0 204.595405 0 102.297702 102.297702 0 1 0-204.595405 0Z" fill="#297AFF" p-id="2049"></path><path d="M104.343656 921.702298m-102.297702 0a102.297702 102.297702 0 1 0 204.595405 0 102.297702 102.297702 0 1 0-204.595405 0Z" fill="#297AFF" p-id="2050"></path><path d="M375.944056 921.702298m-102.297702 0a102.297702 102.297702 0 1 0 204.595404 0 102.297702 102.297702 0 1 0-204.595404 0Z" fill="#FFC65F" p-id="2051"></path><path d="M648.055944 921.702298m-102.297702 0a102.297702 102.297702 0 1 0 204.595404 0 102.297702 102.297702 0 1 0-204.595404 0Z" fill="#FFC65F" p-id="2052"></path><path d="M919.656344 921.702298m-102.297703 0a102.297702 102.297702 0 1 0 204.595405 0 102.297702 102.297702 0 1 0-204.595405 0Z" fill="#297AFF" p-id="2053"></path></svg>