<?xml version="1.0" standalone="no"?><!DOCTYPE svg PUBLIC "-//W3C//DTD SVG 1.1//EN" "http://www.w3.org/Graphics/SVG/1.1/DTD/svg11.dtd"><svg t="1760605801000" class="icon" viewBox="0 0 1024 1024" version="1.1" xmlns="http://www.w3.org/2000/svg" p-id="7480" xmlns:xlink="http://www.w3.org/1999/xlink" width="200" height="200"><path d="M930.133333 247.466667c51.2 17.066667 93.866667 68.266667 93.866667 128v640l-166.4-93.866667H320c-59.733333 0-110.933333-42.666667-123.733333-98.133333h733.866666V247.466667z" p-id="7481" fill="#ffffff"></path><path d="M704 51.2c72.533333 0 128 55.466667 128 128V597.333333c0 72.533333-55.466667 128-128 128H166.4L0 819.2v-640c0-72.533333 55.466667-128 128-128h576z m-512 226.133333V341.333333H640V277.333333H192z m0 157.866667v64H640v-64H192z" p-id="7482" fill="#ffffff"></path></svg>