<?xml version="1.0" standalone="no"?><!DOCTYPE svg PUBLIC "-//W3C//DTD SVG 1.1//EN" "http://www.w3.org/Graphics/SVG/1.1/DTD/svg11.dtd"><svg t="1761545847340" class="icon" viewBox="0 0 1024 1024" version="1.1" xmlns="http://www.w3.org/2000/svg" p-id="8167" xmlns:xlink="http://www.w3.org/1999/xlink" width="200" height="200"><path d="M386.95424 122.34752a187.20768 187.20768 0 0 1 187.00288 0l197.40672 113.80736a187.20768 187.20768 0 0 1 93.70112 162.18624v41.81504a38.52288 38.52288 0 1 1-77.04064 0v-41.81504c0-9.02656-1.12128-17.8944-3.23584-26.43968l-267.7504 154.58816v316.7488a110.19776 110.19776 0 0 0 18.44224-8.4736l61.72672-35.64032a38.53312 38.53312 0 0 1 52.62848 14.10048 38.53824 38.53824 0 0 1-14.1056 52.62848l-61.72672 35.63008a187.19232 187.19232 0 0 1-187.10016 0.05632l-197.35552-113.77152a187.21792 187.21792 0 0 1-93.70624-162.18624V398.34112a187.2128 187.2128 0 0 1 93.70624-162.18624l197.40672-113.80736z m-211.456 252.2112a110.1824 110.1824 0 0 0-2.6112 23.7824v227.24096a110.1824 110.1824 0 0 0 55.1424 95.44192l197.3504 113.77152c4.73088 2.72896 9.6256 5.06368 14.61248 7.02976v-314.55744l-264.4992-152.704z m359.97696-185.45664a110.16192 110.16192 0 0 0-110.03904 0L228.02944 302.90432c-3.67616 2.11456-7.18848 4.43904-10.5472 6.92736l260.352 150.3232 263.27552-151.99232a109.568 109.568 0 0 0-8.23296-5.26336l-197.4016-113.79712z" p-id="8168" fill="#ffffff"></path><path d="M744.09472 525.83424a35.11296 35.11296 0 0 0-32.60416-22.15424 35.14368 35.14368 0 0 0-32.66048 22.07232l-83.66592 208.9216a29.07136 29.07136 0 0 0 53.98016 21.62176l18.10944-45.19936h87.9616l17.95584 45.12768a29.06112 29.06112 0 0 0 37.76 16.27648 29.0816 29.0816 0 0 0 16.27136-37.76512l-83.10784-208.90112z m-53.52448 127.10912l20.84352-52.0448 20.69504 52.0448h-41.53856z m198.98368-159.54944a29.0816 29.0816 0 0 0-29.07648 29.07648v223.01696a29.06624 29.06624 0 1 0 58.14784 0v-223.01696a29.07136 29.07136 0 0 0-29.07136-29.07648z" p-id="8169" fill="#ffffff"></path></svg>