<?xml version="1.0" standalone="no"?><!DOCTYPE svg PUBLIC "-//W3C//DTD SVG 1.1//EN" "http://www.w3.org/Graphics/SVG/1.1/DTD/svg11.dtd"><svg t="1760605649283" class="icon" viewBox="0 0 1024 1024" version="1.1" xmlns="http://www.w3.org/2000/svg" p-id="2550" xmlns:xlink="http://www.w3.org/1999/xlink" width="200" height="200"><path d="M787.180819 199.480519h-242.957043V77.746254H309.450549V5.114885H1.534466v76.723277h231.192807v68.53946H1.534466v76.723277h307.916083V154.46953h158.049951v166.745255H1.534466v76.723277H542.177822v-38.361638h2.045954V276.203796h242.957043z" fill="#DD0B0B" p-id="2551"></path><path d="M624.015984 542.689311H309.450549V487.448551H1.534466v76.723277h231.192807v68.539461H1.534466v76.723276h307.916083v-90.021978H624.015984z" fill="#297AFF" p-id="2552"></path><path d="M600.487512 874.645355H309.450549v-72.631369H1.534466v76.723277h231.192807v68.53946H1.534466v76.723277h307.916083V951.368631h291.036963z" fill="#00DF5E" p-id="2553"></path><path d="M1022.977023 439.88012h-181.578422V199.480519h-76.723276v521.718282h-87.464536v-178.50949h-76.723277v409.190809h76.723277V797.922078h164.187812v-281.318681H1022.977023z" p-id="2554"></path></svg>