<?xml version="1.0" standalone="no"?><!DOCTYPE svg PUBLIC "-//W3C//DTD SVG 1.1//EN" "http://www.w3.org/Graphics/SVG/1.1/DTD/svg11.dtd"><svg t="1760605824462" class="icon" viewBox="0 0 1024 1024" version="1.1" xmlns="http://www.w3.org/2000/svg" p-id="8523" xmlns:xlink="http://www.w3.org/1999/xlink" width="200" height="200"><path d="M959.744 123.968C872.448 50.176 704.576 0.32 511.872 0.32 319.104 0.32 151.232 50.24 64 123.968c-40.832 34.496-64 74.048-64 116.288v543.808C0 916.544 229.12 1024 511.872 1024c282.688 0 511.808-107.52 511.808-239.936V240.256c0-42.24-23.168-81.792-64-116.288zM87.68 189.632c19.84-21.888 50.688-43.072 89.408-61.184 42.24-19.84 92.096-35.456 147.968-46.592a962.56 962.56 0 0 1 186.752-17.6c64.96 0 127.744 5.952 186.752 17.6 55.872 11.136 105.6 26.816 147.904 46.592 38.72 18.112 69.632 39.296 89.408 61.184 15.808 17.536 23.808 34.56 23.808 50.496 0 16.128-8 33.088-23.808 50.496-19.84 21.888-50.688 43.072-89.408 61.184-42.24 19.84-92.032 35.456-147.904 46.592-59.008 11.648-121.92 17.6-186.752 17.6C446.976 416 384 410.048 325.12 398.4c-55.872-11.136-105.664-26.816-147.968-46.592-38.72-18.112-69.568-39.296-89.408-61.184C72 273.28 64 256.32 64 240.256c0-16.128 8-33.088 23.744-50.56zM64 356.48c87.232 73.792 255.104 123.648 447.872 123.648 192.704 0 360.576-49.856 447.872-123.648v155.264c0 16.128-8 33.088-23.808 50.496-19.84 21.888-50.688 43.072-89.408 61.184-42.24 19.84-92.032 35.456-147.904 46.592-59.008 11.712-121.92 17.6-186.752 17.6-64.896 0-127.808-5.888-186.752-17.6-55.872-11.136-105.664-26.816-147.968-46.592-38.72-18.112-69.568-39.296-89.408-61.184C72 544.768 64 527.744 64 511.744V356.48z m895.744 427.584c0 16.128-8 33.088-23.808 50.496-19.84 21.888-50.688 43.072-89.408 61.184-42.24 19.84-92.032 35.456-147.904 46.592-59.008 11.712-121.92 17.6-186.752 17.6-64.896 0-127.808-5.888-186.752-17.6-55.872-11.136-105.664-26.816-147.968-46.592-38.72-18.112-69.568-39.296-89.408-61.184-15.744-17.408-23.744-34.368-23.744-50.496v-156.16c87.232 73.792 255.104 123.648 447.872 123.648 192.704 0 360.576-49.856 447.872-123.648v156.16z" fill="#ffffff" fill-opacity=".47" p-id="8524"></path><path d="M128 519.872a40 40 0 1 0 79.936 0 40 40 0 0 0-80 0zM128 791.744a40 40 0 1 0 79.936 0 40 40 0 0 0-80 0z" fill="#ffffff" fill-opacity=".47" p-id="8525"></path></svg>