<?xml version="1.0" standalone="no"?><!DOCTYPE svg PUBLIC "-//W3C//DTD SVG 1.1//EN" "http://www.w3.org/Graphics/SVG/1.1/DTD/svg11.dtd"><svg t="1760608607862" class="icon" viewBox="0 0 1024 1024" version="1.1" xmlns="http://www.w3.org/2000/svg" p-id="4776" xmlns:xlink="http://www.w3.org/1999/xlink" width="200" height="200"><path d="M755.797333 891.733333H250.410667A80.810667 80.810667 0 0 1 170.666667 811.776V165.077333A80.768 80.768 0 0 1 250.410667 85.333333h289.024a33.152 33.152 0 0 1 34.133333 32.426667v1.706667a33.152 33.152 0 0 1-32.384 33.92H250.410667a12.373333 12.373333 0 0 0-11.904 11.904v646.485333a12.373333 12.373333 0 0 0 11.904 11.904h505.386666a12.373333 12.373333 0 0 0 11.904-11.904v-369.194667a34.133333 34.133333 0 0 1 67.84 0v369.194667a80.810667 80.810667 0 0 1-79.744 79.957333m-243.2-189.696H384a34.133333 34.133333 0 0 1 0-67.84h129.962667a34.133333 34.133333 0 0 1-1.322667 67.84z m100.565334-166.784H384a33.92 33.92 0 1 1-2.389333-67.797333h231.509333a33.92 33.92 0 1 1 2.389333 67.797333h-2.346666z m46.08-221.866666l-55.466667-38.4a483.498667 483.498667 0 0 1 130.090667-128l3.242666-1.834667-20.650666-50.56a5.717333 5.717333 0 0 1 0.725333-5.162667 6.698667 6.698667 0 0 1 5.290667-2.986666l174.592 22.784a11.050667 11.050667 0 0 1 5.632 7.210666 3.712 3.712 0 0 1-0.981334 3.456L793.216 260.266667a5.888 5.888 0 0 1-4.565333 2.474666 4.864 4.864 0 0 1-4.565334-3.712l-21.333333-50.858666-4.266667 2.816a464.554667 464.554667 0 0 0-99.157333 102.186666z" p-id="4777" fill="#ffffff"></path></svg>