<?xml version="1.0" standalone="no"?><!DOCTYPE svg PUBLIC "-//W3C//DTD SVG 1.1//EN" "http://www.w3.org/Graphics/SVG/1.1/DTD/svg11.dtd"><svg t="1760607877629" class="icon" viewBox="0 0 1024 1024" version="1.1" xmlns="http://www.w3.org/2000/svg" p-id="1022" xmlns:xlink="http://www.w3.org/1999/xlink" width="200" height="200"><path d="M845.55 307.67L695.94 166.32a50.24 50.24 0 0 0-34.63-13.77H213.08A50.48 50.48 0 0 0 162.66 203v618a50.48 50.48 0 0 0 50.42 50.43h597.84A50.48 50.48 0 0 0 861.34 821V344.33a50.64 50.64 0 0 0-15.79-36.66z m-56.21 491.78H234.66v-574.9h418.07l136.61 129.07z" p-id="1023" fill="#ffffff"></path><path d="M328.48 393.09H474a36 36 0 0 0 0-72H328.48a36 36 0 0 0 0 72zM292.48 512a36 36 0 0 0 36 36h337a36 36 0 0 0 0-72h-337a36 36 0 0 0-36 36zM553.13 634.21H328.48a36 36 0 0 0 0 72h224.65a36 36 0 1 0 0-72z" p-id="1024" fill="#ffffff"></path></svg>