<?xml version="1.0" standalone="no"?><!DOCTYPE svg PUBLIC "-//W3C//DTD SVG 1.1//EN" "http://www.w3.org/Graphics/SVG/1.1/DTD/svg11.dtd"><svg t="1761288752479" class="icon" viewBox="0 0 1024 1024" version="1.1" xmlns="http://www.w3.org/2000/svg" p-id="12368" xmlns:xlink="http://www.w3.org/1999/xlink" width="200" height="200"><path d="M810.714 64C893.163 64 960 130.837 960 213.286v41.065c0 22.092-17.909 40-40 40s-40-17.908-40-40v-41.065C880 175.02 848.98 144 810.714 144H213.286C175.02 144 144 175.02 144 213.286v38.766c0 22.092-17.909 40-40 40s-40-17.908-40-40v-38.766C64 130.837 130.838 64 213.286 64h597.428zM810.714 960.351c82.449 0 149.286-66.837 149.286-149.285V770c0-22.091-17.909-40-40-40s-40 17.909-40 40v41.066c0 38.265-31.02 69.285-69.286 69.285H213.286c-38.266 0-69.286-31.02-69.286-69.285v-38.767c0-22.091-17.909-40-40-40s-40 17.909-40 40v38.767c0 82.448 66.838 149.285 149.286 149.285h597.428zM298 325c22.091 0 40 17.909 40 40s-17.909 40-40 40H144v214h154c22.091 0 40 17.909 40 40s-17.909 40-40 40H144c-44.183 0-80-35.817-80-80V405c0-44.183 35.817-80 80-80h154z" p-id="12369" fill="#ffffff"></path><path d="M297.541 472.361c22.092-0.031 40.026 17.852 40.058 39.943 0.031 22.091-17.852 40.026-39.943 40.057l-193.599 0.278c-22.091 0.031-40.025-17.852-40.057-39.943-0.032-22.091 17.851-40.026 39.943-40.057l193.598-0.278zM381.392 366c0-40.277 52.81-55.3 74.01-21.054l107.99 174.445V366c0-21.87 17.552-39.641 39.338-39.995l0.662-0.005c22.091 0 40 17.909 40 40v294c0 40.277-52.81 55.3-74.01 21.054L461.391 506.61V660c0 21.87-17.552 39.641-39.339 39.995l-0.661 0.005c-22.092 0-40-17.909-40-40V366zM882.201 351.914c7.227-20.876 30.01-31.94 50.885-24.713 20.876 7.227 31.94 30.01 24.713 50.885l-102.13 295c-12.424 35.885-63.175 35.885-75.598 0l-102.131-295c-7.227-20.876 3.837-43.658 24.713-50.885 20.875-7.227 43.657 3.837 50.885 24.713l64.33 185.819 64.333-185.82z" p-id="12370" fill="#ffffff"></path></svg>