<?xml version="1.0" standalone="no"?><!DOCTYPE svg PUBLIC "-//W3C//DTD SVG 1.1//EN" "http://www.w3.org/Graphics/SVG/1.1/DTD/svg11.dtd"><svg t="1760607888940" class="icon" viewBox="0 0 1024 1024" version="1.1" xmlns="http://www.w3.org/2000/svg" p-id="1369" xmlns:xlink="http://www.w3.org/1999/xlink" width="200" height="200"><path d="M912 176H729.48a251.85 251.85 0 0 0-179.24 74.24A255.14 255.14 0 0 0 512 299.07a255.14 255.14 0 0 0-38.24-48.83A251.85 251.85 0 0 0 294.52 176H112a36 36 0 0 0-36 36v600a36 36 0 0 0 47.42 34.14 586.18 586.18 0 0 1 340.89-9.8l38.24 10.4a35.3 35.3 0 0 0 4.51 0.91c0.15 0 0.3 0 0.46 0.06 0.57 0.07 1.15 0.13 1.73 0.18h0.57c0.7 0 1.41 0.07 2.12 0.07h0.12c0.71 0 1.42 0 2.12-0.07h0.57c0.58 0 1.16-0.11 1.73-0.18 0.16 0 0.31 0 0.46-0.06a35.65 35.65 0 0 0 4.51-0.91l38.24-10.4a586.26 586.26 0 0 1 340.89 9.8A36 36 0 0 0 948 812V212a36 36 0 0 0-36-36z m-36 587.92A657.5 657.5 0 0 0 548 765V561.39a36 36 0 1 0-72 0V765a657.2 657.2 0 0 0-328-1.05V248h146.52C394.59 248 476 329.41 476 429.48a36 36 0 0 0 72 0C548 329.41 629.41 248 729.48 248H876z" p-id="1370" fill="#ffffff"></path><path d="M334.74 419h-86.87a36 36 0 1 0 0 72h86.87a36 36 0 0 0 0-72zM653.26 455a36 36 0 0 0 36 36h86.87a36 36 0 0 0 0-72h-86.87a36 36 0 0 0-36 36z" p-id="1371" fill="#ffffff"></path></svg>