<?xml version="1.0" standalone="no"?><!DOCTYPE svg PUBLIC "-//W3C//DTD SVG 1.1//EN" "http://www.w3.org/Graphics/SVG/1.1/DTD/svg11.dtd"><svg t="1760608401767" class="icon" viewBox="0 0 1024 1024" version="1.1" xmlns="http://www.w3.org/2000/svg" p-id="11435" xmlns:xlink="http://www.w3.org/1999/xlink" width="200" height="200"><path d="M666.614007 382.889631a242.471594 242.471594 0 1 0-57.037094 57.101037l131.466666 127.885862a8.056809 8.056809 0 0 0 11.445784 0l45.655253-45.719195a8.056809 8.056809 0 0 0 0-11.445785l-131.466666-127.885862z m-197.391828-301.810634a161.519844 161.519844 0 1 1-114.202074 47.317769 155.573151 155.573151 0 0 1 114.202074-47.317769z m527.209466 272.908429v377.263293a8.056809 8.056809 0 0 1-8.312581 8.056809l-33.314267-1.08703a668.267571 668.267571 0 0 0-261.590531 35.040726 830.235015 830.235015 0 0 0-158.450583 76.731517l-18.159792 12.404929a8.056809 8.056809 0 0 1-9.079896 0l-18.159793-12.404929a830.235015 830.235015 0 0 0-158.450582-76.731517 668.395457 668.395457 0 0 0-261.590531-35.040726l-33.314267 1.08703a8.056809 8.056809 0 0 1-8.376524-8.056809v-377.263293a8.120752 8.120752 0 0 1 8.056809-8.056809h64.582361a8.120752 8.120752 0 0 1 8.056809 8.056809v294.585083a8.056809 8.056809 0 0 0 7.992866 8.056809 695.443317 695.443317 0 0 1 243.814396 41.051362 1071.747465 1071.747465 0 0 1 147.772113 68.354993 8.056809 8.056809 0 0 0 8.248639 0 1071.61958 1071.61958 0 0 1 147.772113-68.354993 695.443317 695.443317 0 0 1 243.814396-41.051362 8.056809 8.056809 0 0 0 7.992866-8.056809V353.987426a8.120752 8.120752 0 0 1 8.056809-8.056809h64.58236a8.120752 8.120752 0 0 1 8.05681 8.056809z m-652.53761 505.149155a868.025287 868.025287 0 0 0-309.3559-40.220104 8.056809 8.056809 0 0 0-7.928924 8.312581l1.918288 64.518417a8.120752 8.120752 0 0 0 8.376524 7.801038 789.695197 789.695197 0 0 1 279.942152 35.616212 947.762122 947.762122 0 0 1 173.860829 76.731518l17.00882 10.614526a8.056809 8.056809 0 0 0 8.568352 0l17.00882-10.614526a947.698179 947.698179 0 0 1 173.860829-76.731518 789.631254 789.631254 0 0 1 279.878209-35.616212 8.184695 8.184695 0 0 0 8.376524-7.801038l1.918288-64.58236a8.056809 8.056809 0 0 0-7.928924-8.248638 868.153173 868.153173 0 0 0-309.3559 40.220104 1195.732808 1195.732808 0 0 0-164.205446 69.889623 8.184695 8.184695 0 0 1-7.801038 0 1195.029436 1195.029436 0 0 0-164.141503-69.953566z" p-id="11436" fill="#ffffff"></path></svg>