<?xml version="1.0" standalone="no"?><!DOCTYPE svg PUBLIC "-//W3C//DTD SVG 1.1//EN" "http://www.w3.org/Graphics/SVG/1.1/DTD/svg11.dtd"><svg t="1760605640017" class="icon" viewBox="0 0 1024 1024" version="1.1" xmlns="http://www.w3.org/2000/svg" p-id="2381" xmlns:xlink="http://www.w3.org/1999/xlink" width="200" height="200"><path d="M90.624 952.32l880.64-913.408M63.0784 925.69088L943.93856 11.8272l55.296 53.2992L118.3744 978.99008z" fill="#DD0B0B" p-id="2382"></path><path d="M1024 1021.44H2.56V0h76.8v944.64H1024z" p-id="2383"></path><path d="M300.032 252.416m-87.552 0a87.552 87.552 0 1 0 175.104 0 87.552 87.552 0 1 0-175.104 0Z" fill="#297AFF" p-id="2384"></path><path d="M824.832 538.624m-87.552 0a87.552 87.552 0 1 0 175.104 0 87.552 87.552 0 1 0-175.104 0Z" fill="#297AFF" p-id="2385"></path><path d="M475.136 583.168m-87.552 0a87.552 87.552 0 1 0 175.104 0 87.552 87.552 0 1 0-175.104 0Z" fill="#297AFF" p-id="2386"></path><path d="M206.336 713.728m-87.552 0a87.552 87.552 0 1 0 175.104 0 87.552 87.552 0 1 0-175.104 0Z" fill="#297AFF" p-id="2387"></path><path d="M892.416 264.704m-87.552 0a87.552 87.552 0 1 0 175.104 0 87.552 87.552 0 1 0-175.104 0Z" fill="#297AFF" p-id="2388"></path></svg>