<?xml version="1.0" standalone="no"?><!DOCTYPE svg PUBLIC "-//W3C//DTD SVG 1.1//EN" "http://www.w3.org/Graphics/SVG/1.1/DTD/svg11.dtd"><svg t="1760817482920" class="icon" viewBox="0 0 1024 1024" version="1.1" xmlns="http://www.w3.org/2000/svg" p-id="4577" xmlns:xlink="http://www.w3.org/1999/xlink" width="200" height="200"><path d="M65.991363 679.954822c-12.104086 0-21.912081-9.807995-21.912081-21.91208s9.807995-21.912081 21.912081-21.912081h183.177057c38.183147 0 72.85129 15.590743 97.994906 40.734359 25.143616 25.11527 40.734359 59.811759 40.73436 97.994907v183.177057c0 12.104086-9.807995 21.912081-21.912081 21.91208s-21.912081-9.807995-21.91208-21.91208v-183.177057c0-26.079061-10.686746-49.805337-27.893257-67.011848s-40.932787-27.893257-67.011848-27.893257H65.991363z m613.935112 278.082162c0 12.104086-9.807995 21.912081-21.91208 21.91208s-21.912081-9.807995-21.912081-21.91208v-183.177057c0-38.183147 15.590743-72.85129 40.73436-97.994907 25.11527-25.143616 59.811759-40.734359 97.994906-40.734359h183.205404c12.104086 0 21.912081 9.807995 21.91208 21.912081s-9.807995 21.912081-21.91208 21.91208h-183.205404c-26.079061 0-49.805337 10.686746-67.011848 27.893257s-27.893257 40.932787-27.893257 67.011848v183.177057z m278.110509-613.963459c12.104086 0 21.912081 9.807995 21.91208 21.91208s-9.807995 21.912081-21.91208 21.912081h-183.205404c-38.183147 0-72.85129-15.590743-97.994906-40.73436s-40.734359-59.840106-40.73436-97.994906V65.963016c0-12.104086 9.807995-21.912081 21.912081-21.91208s21.912081 9.807995 21.91208 21.91208v183.205404c0 26.050714 10.686746 49.77699 27.893257 66.983501 17.206511 17.234858 40.932787 27.921603 67.011848 27.921604h183.205404zM344.073525 65.963016c0-12.104086 9.807995-21.912081 21.91208-21.91208s21.912081 9.807995 21.912081 21.91208v183.205404c0 38.1548-15.590743 72.85129-40.73436 97.994906s-59.811759 40.734359-97.994906 40.73436H65.991363c-12.104086 0-21.912081-9.807995-21.912081-21.912081s9.807995-21.912081 21.912081-21.91208h183.177057c26.079061 0 49.805337-10.686746 67.011848-27.893257 17.206511-17.234858 27.893257-40.932787 27.893257-67.011848V65.963016z" fill="#ffffff" p-id="4578"></path></svg>