<?xml version="1.0" standalone="no"?><!DOCTYPE svg PUBLIC "-//W3C//DTD SVG 1.1//EN" "http://www.w3.org/Graphics/SVG/1.1/DTD/svg11.dtd"><svg t="1761290176581" class="icon" viewBox="0 0 1024 1024" version="1.1" xmlns="http://www.w3.org/2000/svg" p-id="20506" xmlns:xlink="http://www.w3.org/1999/xlink" width="200" height="200"><path d="M902.3 658.2H594.9c-10.4 0-17.3 6.9-24.2 17.3-3.5 10.4-3.5 24.2 0 34.5 3.5 10.4 13.8 17.3 24.2 17.3h307.4c13.8 0 24.2-17.3 24.2-34.5s-10.4-34.6-24.2-34.6z m-697.7-6.9l152 155.4 414.5-424.9c34.5-34.5 31.1-96.7-6.9-138.2l-55.3-55.3c-38-41.4-100.2-44.9-134.7-6.9l-414.5 425-62.2 224.5c0 10.4 0 20.7 6.9 27.6 6.9 6.9 17.3 10.4 27.6 6.9l221.1-62.2-44.9-44.9-141.6 41.5 38-148.5-38-38 38 38z m414.5-424.9c13.8-13.8 34.5-13.8 51.8 3.5l55.3 55.3c13.8 13.8 17.3 38 3.5 51.8l-62.2 65.6-110.6-110.5 62.2-65.7zM512 337l110.5 110.5-269.4 272.9-110.5-110.5L512 337z m158.9 190c-3.5 6.9-6.9 17.3-6.9 24.2 0 20.7 10.4 34.5 27.6 34.5h210.7c13.8 0 24.2-17.3 24.2-34.5s-10.4-34.5-24.2-34.5H691.6c-10.3-0.1-17.3 3.4-20.7 10.3z m231.4 272.8H487.8c-10.4 0-17.3 6.9-24.2 17.3-3.5 10.4-3.5 24.2 0 34.5 3.5 10.4 13.8 17.3 24.2 17.3h414.5c13.8 0 24.2-17.3 24.2-34.5 0-20.7-10.4-34.6-24.2-34.6z" fill="#ffffff" p-id="20507"></path></svg>