<?xml version="1.0" standalone="no"?><!DOCTYPE svg PUBLIC "-//W3C//DTD SVG 1.1//EN" "http://www.w3.org/Graphics/SVG/1.1/DTD/svg11.dtd"><svg t="1761290145996" class="icon" viewBox="0 0 1024 1024" version="1.1" xmlns="http://www.w3.org/2000/svg" p-id="17717" xmlns:xlink="http://www.w3.org/1999/xlink" width="200" height="200"><path d="M737.044989 543.53657a140.10851 140.10851 0 0 0 143.307335 109.399796A144.586864 144.586864 0 0 0 1023.659658 512.188091a150.984513 150.984513 0 0 0-143.307334-150.984513 145.866394 145.866394 0 0 0-143.307335 116.437209H422.92043a328.839152 328.839152 0 0 1-6.397649-33.907539L648.11767 256.282136a140.10851 140.10851 0 0 0 232.234654-110.03956A144.586864 144.586864 0 0 0 737.044989 0.376182a140.10851 140.10851 0 0 0-150.344748 137.54945 191.929466 191.929466 0 0 0 14.074827 63.976489L383.894772 378.47723a225.19724 225.19724 0 0 0-165.699106-82.529671A216.240532 216.240532 0 0 0 0.03584 516.02668a208.563353 208.563353 0 0 0 211.762177 212.401942 204.084999 204.084999 0 0 0 163.779811-81.889905l238.632303 178.494403a154.183338 154.183338 0 0 0-13.435063 55.019781 143.307335 143.307335 0 1 0 143.307335-144.586865 164.419576 164.419576 0 0 0-95.964733 34.547304l-231.594889-185.531817a127.952977 127.952977 0 0 0 6.397649-40.944953z m0 0" p-id="17718" fill="#ffffff"></path></svg>