<?xml version="1.0" standalone="no"?><!DOCTYPE svg PUBLIC "-//W3C//DTD SVG 1.1//EN" "http://www.w3.org/Graphics/SVG/1.1/DTD/svg11.dtd"><svg t="1764320497049" class="icon" viewBox="0 0 1024 1024" version="1.1" xmlns="http://www.w3.org/2000/svg" p-id="6366" xmlns:xlink="http://www.w3.org/1999/xlink" width="200" height="200"><path d="M640.512 483.328l-547.84-346.624c-15.872-10.24-37.376-5.12-47.104 10.752-3.584 5.632-5.12 11.776-5.12 18.432v693.248c0 18.944 15.36 34.304 34.304 34.304 6.656 0 12.8-2.048 17.92-5.12l548.352-346.624c15.872-10.24 20.992-31.232 10.752-47.616-3.584-4.608-7.168-8.192-11.264-10.752zM909.824 126.464c-47.616 0-86.016 37.376-86.016 83.968v609.28c0 46.592 38.4 83.968 86.016 83.968s86.016-37.376 86.016-83.968v-609.28c0-46.592-38.4-83.968-86.016-83.968z" p-id="6367" fill="#ffffff"></path></svg>