<?xml version="1.0" standalone="no"?><!DOCTYPE svg PUBLIC "-//W3C//DTD SVG 1.1//EN" "http://www.w3.org/Graphics/SVG/1.1/DTD/svg11.dtd"><svg t="1761282397905" class="icon" viewBox="0 0 1024 1024" version="1.1" xmlns="http://www.w3.org/2000/svg" p-id="3502" xmlns:xlink="http://www.w3.org/1999/xlink" width="200" height="200"><path d="M445.44 650.24v97.28c0 25.6-10.24 51.2-40.96 51.2s-35.84-20.48-35.84-51.2v-97.28H271.36c-25.6 0-51.2-5.12-51.2-35.84s20.48-40.96 51.2-40.96h97.28V481.28c0-25.6 5.12-51.2 35.84-51.2s40.96 20.48 40.96 51.2v97.28h102.4c25.6 0 51.2 10.24 51.2 40.96s-20.48 35.84-51.2 35.84h-102.4z" fill="#ffffff" p-id="3503"></path><path d="M936.96 0H291.84C245.76 0 204.8 40.96 204.8 87.04v194.56h76.8V87.04c0-5.12 5.12-10.24 10.24-10.24h645.12c5.12 0 10.24 5.12 10.24 10.24v645.12c0 5.12-5.12 10.24-10.24 10.24h-148.48V819.2h148.48c46.08 0 87.04-40.96 87.04-87.04V87.04c0-46.08-40.96-87.04-87.04-87.04z" fill="#ffffff" p-id="3504"></path><path d="M732.16 204.8H87.04C40.96 204.8 0 245.76 0 291.84v645.12c0 46.08 40.96 87.04 87.04 87.04h645.12c46.08 0 87.04-40.96 87.04-87.04V291.84c0-46.08-40.96-87.04-87.04-87.04z m10.24 732.16c0 5.12-5.12 10.24-10.24 10.24H87.04c-5.12 0-10.24-5.12-10.24-10.24V291.84c0-5.12 5.12-10.24 10.24-10.24h645.12c5.12 0 10.24 5.12 10.24 10.24v645.12z" fill="#ffffff" p-id="3505"></path></svg>