<?xml version="1.0" standalone="no"?><!DOCTYPE svg PUBLIC "-//W3C//DTD SVG 1.1//EN" "http://www.w3.org/Graphics/SVG/1.1/DTD/svg11.dtd"><svg t="1760605273820" class="icon" viewBox="0 0 1024 1024" version="1.1" xmlns="http://www.w3.org/2000/svg" p-id="2680" xmlns:xlink="http://www.w3.org/1999/xlink" width="200" height="200"><path d="M788.992 985.6c-124.416 0-225.28-100.864-225.28-225.28s100.864-225.28 225.28-225.28 225.28 100.864 225.28 225.28-100.864 225.28-225.28 225.28z m0-396.8c-94.72 0-171.52 76.8-171.52 171.52s76.8 171.52 171.52 171.52 171.52-76.8 171.52-171.52-76.8-171.52-171.52-171.52z" fill="#ffffff" p-id="2681"></path><path d="M47.616 11.264c20.992 0 39.424 15.36 43.008 36.352l0.512 7.168v877.568H972.8c20.992 0 39.424 15.36 43.008 36.352l0.512 7.168c0 20.992-15.36 39.424-36.352 43.008H4.096V54.272C4.096 30.72 23.552 11.264 47.616 11.264z" fill="#ffffff" p-id="2682"></path><path d="M49.152 906.24c-12.288 0-22.528-7.68-26.624-19.456-2.048-7.168-1.536-14.336 1.536-20.992 3.584-6.656 9.216-11.264 16.384-13.824 0.512 0 1.024-0.512 1.536-0.512 267.264-75.776 413.184-210.432 445.44-411.648l1.536-10.24c32.256-230.4 172.032-351.744 416.256-361.472H908.288c14.848 0 27.136 11.776 27.648 26.624 0.512 7.168-2.56 14.336-7.168 19.968-5.12 5.632-11.776 8.704-19.456 8.704-214.016 7.68-332.8 107.008-363.52 303.616l-1.536 10.24c-31.744 227.328-195.584 385.024-486.912 467.456-2.56 1.536-5.12 1.536-8.192 1.536z" fill="#ffffff" p-id="2683"></path><path d="M274.432 371.2c0 41.472 33.792 75.264 75.264 75.264S424.96 412.672 424.96 371.2s-33.792-75.264-75.264-75.264-75.264 33.792-75.264 75.264zM608.256 419.328c0 41.472 33.792 75.264 75.264 75.264s75.264-33.792 75.264-75.264-33.792-75.264-75.264-75.264c-41.984 0-75.264 33.792-75.264 75.264zM790.016 234.496c0 41.472 33.792 75.264 75.264 75.264s75.264-33.792 75.264-75.264-33.792-75.264-75.264-75.264-75.264 33.28-75.264 75.264zM406.528 125.44c0 41.472 33.792 75.264 75.264 75.264s75.264-33.792 75.264-75.264-33.792-75.264-75.264-75.264-75.264 33.28-75.264 75.264zM348.672 834.048c0 41.472 33.792 75.264 75.264 75.264s75.264-33.792 75.264-75.264-33.792-75.264-75.264-75.264-75.264 33.792-75.264 75.264zM190.464 617.472c0 41.472 33.792 75.264 75.264 75.264s75.264-33.792 75.264-75.264-33.792-75.264-75.264-75.264-75.264 33.792-75.264 75.264zM844.288 852.992l-20.992-62.976h-57.856l-21.504 62.976H706.56l72.192-207.36h30.208l72.704 207.36h-37.376z m-31.744-95.744l-6.656-20.48c-4.096-10.752-7.68-21.504-11.264-33.792-3.072 10.24-6.656 20.992-11.264 33.792l-6.656 20.48h35.84z" fill="#ffffff" p-id="2684"></path></svg>