<?xml version="1.0" standalone="no"?><!DOCTYPE svg PUBLIC "-//W3C//DTD SVG 1.1//EN" "http://www.w3.org/Graphics/SVG/1.1/DTD/svg11.dtd"><svg t="1760608461645" class="icon" viewBox="0 0 1024 1024" version="1.1" xmlns="http://www.w3.org/2000/svg" p-id="14273" xmlns:xlink="http://www.w3.org/1999/xlink" width="200" height="200"><path d="M689 64c149.67 0 271 121.33 271 271v354c0 149.67-121.33 271-271 271H418V64h271z m0 80H498v736h191c105.486 0 191-85.514 191-191V335c0-105.486-85.514-191-191-191z" p-id="14274" fill="#ffffff"></path><path d="M247 64m40 0l0 0q40 0 40 40l0 816q0 40-40 40l0 0q-40 0-40-40l0-816q0-40 40-40Z" p-id="14275" fill="#ffffff"></path><path d="M64 171m40 0l0 0q40 0 40 40l0 632q0 40-40 40l0 0q-40 0-40-40l0-632q0-40 40-40Z" p-id="14276" fill="#ffffff"></path></svg>