<?xml version="1.0" standalone="no"?><!DOCTYPE svg PUBLIC "-//W3C//DTD SVG 1.1//EN" "http://www.w3.org/Graphics/SVG/1.1/DTD/svg11.dtd"><svg t="1760951987510" class="icon" viewBox="0 0 1024 1024" version="1.1" xmlns="http://www.w3.org/2000/svg" p-id="5720" xmlns:xlink="http://www.w3.org/1999/xlink" width="200" height="200"><path d="M388.937 93c16.505 0 29.885 13.389 29.885 29.905v815.13l-0.01 0.792c-0.629 26.014-32.162 38.951-50.859 20.502L72.902 668.183l-0.551-0.558c-11.203-11.638-11.15-30.16 0.255-41.733l0.557-0.551c11.63-11.21 30.14-11.158 41.705 0.255l244.183 240.953V122.905l0.009-0.706C359.435 106.01 372.667 93 388.937 93z m302.306 712.822c16.505 0 29.885 13.389 29.885 29.905 0 16.28-13 29.522-29.18 29.897l-0.705 0.008H541.609c-16.505 0-29.885-13.389-29.885-29.905 0-16.28 13-29.522 29.18-29.897l0.705-0.008h149.634z m87.356-195.534c16.505 0 29.884 13.389 29.884 29.905 0 16.28-13 29.522-29.179 29.897l-0.705 0.008h-236.99c-16.505 0-29.885-13.389-29.885-29.905 0-16.28 13-29.522 29.18-29.897l0.705-0.008h236.99z m82.758-195.534c16.505 0 29.885 13.389 29.885 29.905 0 16.28-13 29.522-29.18 29.897l-0.705 0.008H541.609c-16.505 0-29.885-13.389-29.885-29.905 0-16.28 13-29.522 29.18-29.897l0.705-0.008h319.748z m82.758-195.435c16.505 0 29.885 13.389 29.885 29.905 0 16.28-13 29.522-29.18 29.897l-0.705 0.008H541.61c-16.505 0-29.885-13.389-29.885-29.905 0-16.28 13-29.522 29.18-29.897l0.705-0.008h402.506z" fill="#ffffff" p-id="5721"></path></svg>